# xmcd
#
# Track frame offsets:
#	150
#	18112
#	34149
#	48750
#	64786
#	79414
#	97251
#	112037
#	129861
#	144990
#	164738
#	181069
#	196602
#	212293
#	228544
#	259670
#
# Disc length: 3477 seconds
#
# Revision: 1
# Processed by: cddbd v1.5.2PL0 Copyright (c) Steve Scherf et al.
# Submitted via: audiograbber 1.83.01
#
DISCID=d20d9310
DTITLE=TRACE ADKINS - CB90272
DYEAR=1900
DGENRE=KARAOKE
TTITLE0=BIG TIME
TTITLE1=CHROME
TTITLE2=EVERY LIGHT IN THE HOUSE IS ON
TTITLE3=HOT MAMA
TTITLE4=I LEFT SOMETHING TURNED ON AT HOME
TTITLE5=HELP ME UNDERSTAND
TTITLE6=I'M GONNA LOVE YOU ANYWAY
TTITLE7=I'M TRYIN'
TTITLE8=LONELY WON'T LEAVE ME ALONE
TTITLE9=THIS AIN'T NO THINKIN' THING
TTITLE10=MORE
TTITLE11=ROUGH and READY
TTITLE12=THE REST OF MINE
TTITLE13=SONGS ABOUT ME
TTITLE14=THEN THEY DO
TTITLE15=DATA
EXTD=
EXTT0=
EXTT1=
EXTT2=
EXTT3=
EXTT4=
EXTT5=
EXTT6=
EXTT7=
EXTT8=
EXTT9=
EXTT10=
EXTT11=
EXTT12=
EXTT13=
EXTT14=
EXTT15=
PLAYORDER=
